<mxfile host="app.diagrams.net" modified="2022-05-17T01:22:32.973Z" agent="5.0 (Windows NT 10.0; Win64; x64) AppleWebKit/537.36 (KHTML, like Gecko) Chrome/101.0.4951.64 Safari/537.36 Edg/101.0.1210.47" etag="F8O9_vB4kwtBlCktU8a9" version="18.0.5" type="github">
  <diagram id="C5RBs43oDa-KdzZeNtuy" name="Page-1">
    <mxGraphModel dx="1422" dy="754" grid="1" gridSize="10" guides="1" tooltips="1" connect="1" arrows="1" fold="1" page="1" pageScale="1" pageWidth="827" pageHeight="1169" math="0" shadow="0">
      <root>
        <mxCell id="WIyWlLk6GJQsqaUBKTNV-0" />
        <mxCell id="WIyWlLk6GJQsqaUBKTNV-1" parent="WIyWlLk6GJQsqaUBKTNV-0" />
        <mxCell id="HUjWmoc4QII7mHnhYO_8-6" style="edgeStyle=orthogonalEdgeStyle;rounded=0;orthogonalLoop=1;jettySize=auto;html=1;exitX=0.5;exitY=1;exitDx=0;exitDy=0;entryX=0.5;entryY=0;entryDx=0;entryDy=0;fontSize=18;strokeWidth=2;" edge="1" parent="WIyWlLk6GJQsqaUBKTNV-1" source="HUjWmoc4QII7mHnhYO_8-0" target="HUjWmoc4QII7mHnhYO_8-5">
          <mxGeometry relative="1" as="geometry" />
        </mxCell>
        <mxCell id="HUjWmoc4QII7mHnhYO_8-8" style="edgeStyle=orthogonalEdgeStyle;rounded=0;orthogonalLoop=1;jettySize=auto;html=1;exitX=1;exitY=0.5;exitDx=0;exitDy=0;entryX=0;entryY=0.5;entryDx=0;entryDy=0;entryPerimeter=0;fontSize=18;strokeWidth=2;" edge="1" parent="WIyWlLk6GJQsqaUBKTNV-1" source="HUjWmoc4QII7mHnhYO_8-0" target="HUjWmoc4QII7mHnhYO_8-3">
          <mxGeometry relative="1" as="geometry" />
        </mxCell>
        <mxCell id="HUjWmoc4QII7mHnhYO_8-0" value="&lt;span style=&quot;font-size: 18px;&quot;&gt;训练模型&lt;/span&gt;" style="rounded=0;whiteSpace=wrap;html=1;strokeWidth=2;" vertex="1" parent="WIyWlLk6GJQsqaUBKTNV-1">
          <mxGeometry x="330" y="300" width="110" height="70" as="geometry" />
        </mxCell>
        <mxCell id="HUjWmoc4QII7mHnhYO_8-2" style="edgeStyle=orthogonalEdgeStyle;rounded=0;orthogonalLoop=1;jettySize=auto;html=1;exitX=0.5;exitY=1;exitDx=0;exitDy=0;exitPerimeter=0;fontSize=18;strokeWidth=2;" edge="1" parent="WIyWlLk6GJQsqaUBKTNV-1" source="HUjWmoc4QII7mHnhYO_8-1">
          <mxGeometry relative="1" as="geometry">
            <mxPoint x="380" y="300" as="targetPoint" />
          </mxGeometry>
        </mxCell>
        <mxCell id="HUjWmoc4QII7mHnhYO_8-1" value="构建模型" style="strokeWidth=2;html=1;shape=mxgraph.flowchart.start_1;whiteSpace=wrap;fontSize=18;" vertex="1" parent="WIyWlLk6GJQsqaUBKTNV-1">
          <mxGeometry x="330" y="170" width="100" height="70" as="geometry" />
        </mxCell>
        <mxCell id="HUjWmoc4QII7mHnhYO_8-3" value="理想准确度" style="strokeWidth=2;html=1;shape=mxgraph.flowchart.stored_data;whiteSpace=wrap;fontSize=18;" vertex="1" parent="WIyWlLk6GJQsqaUBKTNV-1">
          <mxGeometry x="510" y="300" width="120" height="70" as="geometry" />
        </mxCell>
        <mxCell id="HUjWmoc4QII7mHnhYO_8-14" style="edgeStyle=orthogonalEdgeStyle;rounded=0;orthogonalLoop=1;jettySize=auto;html=1;exitX=0.5;exitY=1;exitDx=0;exitDy=0;entryX=0.5;entryY=0;entryDx=0;entryDy=0;fontSize=18;strokeWidth=2;" edge="1" parent="WIyWlLk6GJQsqaUBKTNV-1" source="HUjWmoc4QII7mHnhYO_8-5" target="HUjWmoc4QII7mHnhYO_8-13">
          <mxGeometry relative="1" as="geometry" />
        </mxCell>
        <mxCell id="HUjWmoc4QII7mHnhYO_8-5" value="&lt;span style=&quot;font-size: 18px;&quot;&gt;注入故障&lt;/span&gt;" style="rounded=0;whiteSpace=wrap;html=1;strokeWidth=2;" vertex="1" parent="WIyWlLk6GJQsqaUBKTNV-1">
          <mxGeometry x="330" y="410" width="110" height="70" as="geometry" />
        </mxCell>
        <mxCell id="HUjWmoc4QII7mHnhYO_8-11" style="edgeStyle=orthogonalEdgeStyle;rounded=0;orthogonalLoop=1;jettySize=auto;html=1;exitX=1;exitY=0.5;exitDx=0;exitDy=0;entryX=0;entryY=0.5;entryDx=0;entryDy=0;fontSize=18;strokeWidth=2;" edge="1" parent="WIyWlLk6GJQsqaUBKTNV-1" target="HUjWmoc4QII7mHnhYO_8-5">
          <mxGeometry relative="1" as="geometry">
            <mxPoint x="260" y="445" as="sourcePoint" />
          </mxGeometry>
        </mxCell>
        <mxCell id="HUjWmoc4QII7mHnhYO_8-12" value="故障列表" style="strokeWidth=2;html=1;shape=mxgraph.flowchart.stored_data;whiteSpace=wrap;fontSize=18;" vertex="1" parent="WIyWlLk6GJQsqaUBKTNV-1">
          <mxGeometry x="155" y="410" width="115" height="70" as="geometry" />
        </mxCell>
        <mxCell id="HUjWmoc4QII7mHnhYO_8-13" value="&lt;span style=&quot;font-size: 18px;&quot;&gt;统计不可靠参数&lt;/span&gt;" style="rounded=0;whiteSpace=wrap;html=1;strokeWidth=2;" vertex="1" parent="WIyWlLk6GJQsqaUBKTNV-1">
          <mxGeometry x="330" y="515" width="110" height="70" as="geometry" />
        </mxCell>
      </root>
    </mxGraphModel>
  </diagram>
</mxfile>
